HIERARCHY
ROOT hip
{
	OFFSET 0.000000 0.000000 0.000000
	CHANNELS 6 Xposition Yposition Zposition Xrotation Zrotation Yrotation 
	JOINT abdomen
	{
		OFFSET 0.000000 3.422050 0.000000
		CHANNELS 3 Xrotation Zrotation Yrotation 
		JOINT chest
		{
			OFFSET 0.000000 8.486693 -0.684411
			CHANNELS 3 Xrotation Zrotation Yrotation 
			JOINT neck
			{
				OFFSET 0.000000 10.266162 -0.273764
				CHANNELS 3 Xrotation Zrotation Yrotation 
				JOINT head
				{
					OFFSET 0.000000 3.148285 0.000000
					CHANNELS 3 Xrotation Zrotation Yrotation 
					End Site
					{
						OFFSET 0.000000 3.148289 0.000000
					}
				}
			}
			JOINT lCollar
			{
				OFFSET 3.422053 6.707223 -0.821293
				CHANNELS 3 Yrotation Zrotation Xrotation 
				JOINT lShldr
				{
					OFFSET 3.285171 0.000000 0.000000
					CHANNELS 3 Zrotation Yrotation Xrotation 
					JOINT lForeArm
					{
						OFFSET 10.129278 0.000000 0.000000
						CHANNELS 3 Yrotation Zrotation Xrotation 
						JOINT lHand
						{
							OFFSET 8.486692 0.000000 0.000000
							CHANNELS 3 Zrotation Yrotation Xrotation 
							End Site
							{
								OFFSET 4.106464 0.000000 0.000000
							}
						}
					}
				}
			}
			JOINT rCollar
			{
				OFFSET -3.558935 6.707223 -0.821293
				CHANNELS 3 Yrotation Zrotation Xrotation 
				JOINT rShldr
				{
					OFFSET -3.148289 0.000000 0.000000
					CHANNELS 3 Zrotation Yrotation Xrotation 
					JOINT rForeArm
					{
						OFFSET -10.266159 0.000000 0.000000
						CHANNELS 3 Yrotation Zrotation Xrotation 
						JOINT rHand
						{
							OFFSET -8.349810 0.000000 0.000000
							CHANNELS 3 Zrotation Yrotation Xrotation 
							End Site
							{
								OFFSET -4.106464 0.000000 0.000000
							}
						}
					}
				}
			}
		}
	}
	JOINT lThigh
	{
		OFFSET 5.338403 -1.642589 1.368821
		CHANNELS 3 Xrotation Zrotation Yrotation 
		JOINT lShin
		{
			OFFSET -2.053232 -20.121670 0.000000
			CHANNELS 3 Xrotation Zrotation Yrotation 
			JOINT lFoot
			{
				OFFSET 0.000000 -19.300380 -1.231939
				CHANNELS 3 Xrotation Yrotation Zrotation 
				End Site
				{
					OFFSET 0.000000 -2.463878 4.653993
				}
			}
		}
	}
	JOINT rThigh
	{
		OFFSET -5.338403 -1.642589 1.368821
		CHANNELS 3 Xrotation Zrotation Yrotation 
		JOINT rShin
		{
			OFFSET 2.053232 -20.121670 0.000000
			CHANNELS 3 Xrotation Zrotation Yrotation 
			JOINT rFoot
			{
				OFFSET 0.000000 -19.300380 -1.231939
				CHANNELS 3 Xrotation Yrotation Zrotation 
				End Site
				{
					OFFSET 0.000000 -2.463878 4.653993
				}
			}
		}
	}
}
MOTION
Frames: 18
Frame Time: 0.033264
0.000000 43.528500 0.000000 0.000000 0.000000 0.000000 0.000000 0.000000 0.000000 0.000000 0.000000 0.000000 0.000000 0.000000 0.000000 0.000000 0.000000 0.000000 0.000000 0.000000 0.000000 0.000000 0.000000 0.000000 0.000000 0.000000 0.000000 0.000000 0.000000 0.000000 0.000000 0.000000 0.000000 0.000000 0.000000 0.000000 0.000000 0.000000 0.000000 0.000000 0.000000 0.000000 0.000000 0.000000 0.000000 0.000000 0.000000 0.000000 0.000000 0.000000 0.000000 0.000000 0.000000 0.000000 0.000000 0.000000 0.000000 0.000000 0.000000 0.000000 
-7.223994 7.937199 -1.829268 -90.003609 0.001287 120.000862 -1.369070 12.974183 -2.920824 -1.813794 14.373076 19.391518 16.188725 -10.361795 -19.904716 -7.605374 23.433601 31.327671 30.380899 -19.670008 9.084363 -28.679636 -51.082760 -133.788116 -111.217102 -52.696350 -30.148254 -15.002956 -8.001153 5.000184 30.416189 -2.313269 2.979727 -3.221091 26.451094 4.907026 90.856598 -34.584789 -32.039368 6.996825 0.000000 0.000000 -12.558475 -3.613822 -1.293623 -2.449216 -5.765582 1.312416 106.548248 -10.168203 60.879066 -18.969013 -53.402573 -52.081707 112.485626 33.193581 48.815212 70.082191 -6.191080 11.647465 
-7.223994 7.937199 -1.829268 -90.003609 0.001287 120.000862 -1.369070 12.974183 -2.920824 -1.813794 14.373076 19.391518 16.183578 -10.110741 -19.889303 -7.605373 23.433598 31.327667 30.380899 -19.670008 9.084363 -28.679636 -51.082760 -133.788116 -111.217102 -52.696350 -30.148254 -15.002956 -8.001153 5.000184 30.416189 -2.313269 2.979727 -2.164349 25.147839 5.526490 92.096329 -34.187481 -31.491598 5.858799 0.000000 0.000000 -12.558475 -3.613822 -1.293623 -2.449216 -5.765582 1.312416 106.548256 -10.168206 60.879074 -18.969013 -53.402573 -52.081707 112.485634 33.193581 48.815212 70.082191 -6.191080 11.647465 
-7.223994 7.937199 -1.829268 -90.003609 0.001287 120.000862 -1.369071 12.974183 -2.920824 -1.813794 14.373076 19.391518 16.178501 -9.859612 -19.873919 -7.605375 23.433601 31.327671 30.380899 -19.670008 9.084363 -28.679636 -51.082760 -133.788116 -111.217102 -52.696350 -30.148254 -15.002956 -8.001153 5.000184 30.416189 -2.313269 2.979727 -1.125490 23.823614 6.117939 93.331749 -33.778454 -30.954229 4.714712 0.000000 0.000000 -12.558475 -3.613822 -1.293623 -2.449216 -5.765583 1.312416 106.548248 -10.168203 60.879066 -18.969011 -53.402576 -52.081707 112.485626 33.193584 48.815216 70.082191 -6.191080 11.647466 
-7.223994 7.937199 -1.829268 -90.003609 0.001290 120.000862 -1.369070 12.974184 -2.920825 -1.813794 14.373076 19.391518 16.173494 -9.608412 -19.858559 -7.605374 23.433601 31.327671 30.380899 -19.670008 9.084363 -28.679636 -51.082764 -133.788132 -111.217102 -52.696354 -30.148260 -15.002958 -8.001153 5.000184 30.416189 -2.313269 2.979727 -0.103733 22.479273 6.681817 94.562515 -33.357906 -30.427608 3.564748 0.000000 0.000000 -12.558475 -3.613822 -1.293623 -2.449217 -5.765582 1.312416 106.548256 -10.168206 60.879074 -18.969013 -53.402573 -52.081707 112.485634 33.193581 48.815212 70.082199 -6.191080 11.647466 
-7.223994 7.937199 -1.829268 -90.003616 0.001287 120.000862 -1.369071 12.974184 -2.920825 -1.813794 14.373076 19.391518 16.168558 -9.357145 -19.843237 -7.605374 23.433601 31.327671 30.380899 -19.670010 9.084363 -28.679640 -51.082771 -133.788132 -111.217102 -52.696362 -30.148258 -15.002956 -8.001154 5.000184 30.416189 -2.313270 2.979727 0.901718 21.115685 7.218559 95.788338 -32.926041 -29.912048 2.409093 0.000000 0.000000 -12.558475 -3.613822 -1.293623 -2.449216 -5.765582 1.312416 106.548256 -10.168204 60.879074 -18.969017 -53.402576 -52.081715 112.485626 33.193581 48.815212 70.082191 -6.191081 11.647466 
-7.223994 7.937199 -1.829268 -90.003609 0.001287 120.000862 -1.369070 12.974183 -2.920824 -1.813794 14.373076 19.391518 16.163692 -9.105809 -19.827938 -7.605373 23.433599 31.327667 30.380899 -19.670010 9.084363 -28.679636 -51.082760 -133.788116 -111.217102 -52.696354 -30.148260 -15.002956 -8.001154 5.000184 30.416189 -2.313269 2.979727 1.891659 19.733740 7.728593 97.008949 -32.483078 -29.407854 1.247945 0.000000 0.000000 -12.558475 -3.613822 -1.293623 -2.449216 -5.765582 1.312416 106.548248 -10.168208 60.879074 -18.969017 -53.402576 -52.081715 112.485634 33.193588 48.815220 70.082191 -6.191081 11.647466 
-7.223994 7.937199 -1.829268 -90.003601 0.001288 120.000854 -1.369070 12.974183 -2.920824 -1.813793 14.373076 19.391518 16.158899 -8.854414 -19.812672 -7.605376 23.433603 31.327671 30.380898 -19.670006 9.084363 -28.679634 -51.082756 -133.788116 -111.217094 -52.696346 -30.148251 -15.002956 -8.001152 5.000184 30.416189 -2.313269 2.979727 2.866895 18.334343 8.212330 98.224098 -32.029255 -28.915295 0.081501 0.000000 0.000000 -12.558475 -3.613822 -1.293623 -2.449216 -5.765582 1.312416 106.548248 -10.168201 60.879066 -18.969007 -53.402569 -52.081707 112.485626 33.193581 48.815212 70.082191 -6.191080 11.647465 
-7.223994 7.937199 -1.829268 -90.003609 0.001285 120.000862 -1.369070 12.974183 -2.920824 -1.813793 14.373075 19.391516 16.154177 -8.602957 -19.797434 -7.605374 23.433601 31.327671 30.380898 -19.670006 9.084362 -28.679636 -51.082756 -133.788101 -111.217087 -52.696342 -30.148247 -15.002954 -8.001151 5.000183 30.416189 -2.313269 2.979727 3.828231 16.918440 8.670175 99.433563 -31.564829 -28.434652 -1.090031 0.000000 0.000000 -12.558475 -3.613822 -1.293623 -2.449216 -5.765582 1.312416 106.548248 -10.168203 60.879066 -18.969007 -53.402569 -52.081707 112.485619 33.193581 48.815205 70.082184 -6.191080 11.647464 
-7.223994 7.937199 -1.829268 -90.003609 0.001283 120.000854 -1.369070 12.974183 -2.920824 -1.813793 14.373075 19.391518 16.149517 -8.351439 -19.782215 -7.605374 23.433601 31.327671 30.380899 -19.670006 9.084362 -28.679634 -51.082756 -133.788116 -111.217094 -52.696346 -30.148251 -15.002954 -8.001152 5.000184 30.416189 -2.313269 2.979727 4.776472 15.486962 9.102503 100.637077 -31.090044 -27.966143 -2.266436 0.000000 0.000000 -12.558475 -3.613822 -1.293623 -2.449216 -5.765582 1.312416 106.548241 -10.168203 60.879066 -18.969013 -53.402573 -52.081707 112.485626 33.193581 48.815212 70.082191 -6.191080 11.647465 
-7.223994 7.937199 -1.829268 -90.003609 0.001287 120.000862 -1.369070 12.974183 -2.920824 -1.813793 14.373075 19.391516 16.144930 -8.099866 -19.767029 -7.605374 23.433603 31.327671 30.380898 -19.670008 9.084362 -28.679636 -51.082760 -133.788116 -111.217087 -52.696346 -30.148251 -15.002956 -8.001153 5.000184 30.416189 -2.313269 2.979727 5.712425 14.040888 9.509679 101.834503 -30.605181 -27.509983 -3.447497 0.000000 0.000000 -12.558475 -3.613822 -1.293623 -2.449216 -5.765582 1.312416 106.548248 -10.168205 60.879066 -18.969013 -53.402573 -52.081707 112.485626 33.193581 48.815212 70.082191 -6.191080 11.647464 
-7.223994 7.937199 -1.829268 -90.003609 0.001287 120.000862 -1.369070 12.974183 -2.920824 -1.813794 14.373076 19.391518 16.140409 -7.848239 -19.751869 -7.605375 23.433603 31.327671 30.380899 -19.670008 9.084363 -28.679636 -51.082760 -133.788116 -111.217102 -52.696350 -30.148254 -15.002956 -8.001153 5.000184 30.416189 -2.313269 2.979727 6.636897 12.581200 9.892045 103.025620 -30.110506 -27.066366 -4.632988 0.000000 0.000000 -12.558475 -3.613822 -1.293623 -2.449216 -5.765582 1.312416 106.548248 -10.168205 60.879066 -18.969013 -53.402573 -52.081707 112.485626 33.193581 48.815212 70.082191 -6.191079 11.647465 
-7.223994 7.937199 -1.829268 -90.003609 0.001287 120.000862 -1.369070 12.974183 -2.920824 -1.813793 14.373075 19.391516 16.135965 -7.596564 -19.736738 -7.605373 23.433599 31.327671 30.380899 -19.670008 9.084363 -28.679636 -51.082760 -133.788116 -111.217102 -52.696350 -30.148254 -15.002956 -8.001153 5.000184 30.416189 -2.313269 2.979727 7.550693 11.108901 10.249924 104.210297 -29.606342 -26.635489 -5.822680 0.000000 0.000000 -12.558475 -3.613822 -1.293623 -2.449216 -5.765582 1.312416 106.548248 -10.168203 60.879066 -18.969011 -53.402576 -52.081715 112.485626 33.193581 48.815212 70.082191 -6.191080 11.647465 
-7.223994 7.937199 -1.829268 -90.003609 0.001287 120.000862 -1.369070 12.974183 -2.920824 -1.813794 14.373076 19.391518 16.131586 -7.344837 -19.721632 -7.605373 23.433601 31.327671 30.380899 -19.670008 9.084363 -28.679636 -51.082760 -133.788116 -111.217102 -52.696350 -30.148254 -15.002956 -8.001153 5.000184 30.416189 -2.313269 2.979727 8.454614 9.625005 10.583607 105.388374 -29.092970 -26.217478 -7.016338 0.000000 0.000000 -12.558475 -3.613822 -1.293623 -2.449216 -5.765582 1.312416 106.548248 -10.168203 60.879066 -18.969013 -53.402573 -52.081707 112.485626 33.193581 48.815212 70.082191 -6.191080 11.647465 
-7.223994 7.937199 -1.829268 -90.003609 0.001289 120.000854 -1.369070 12.974183 -2.920825 -1.813794 14.373076 19.391518 16.127275 -7.093065 -19.706547 -7.605374 23.433601 31.327671 30.380899 -19.670008 9.084363 -28.679636 -51.082767 -133.788132 -111.217102 -52.696354 -30.148254 -15.002956 -8.001153 5.000184 30.416189 -2.313269 2.979727 9.349468 8.130548 10.893373 106.559731 -28.570704 -25.812485 -8.213721 0.000000 0.000000 -12.558475 -3.613822 -1.293623 -2.449216 -5.765582 1.312416 106.548256 -10.168201 60.879074 -18.969013 -53.402573 -52.081707 112.485626 33.193581 48.815212 70.082191 -6.191080 11.647465 
-7.223994 7.937199 -1.829268 -90.003609 0.001289 120.000854 -1.369070 12.974183 -2.920824 -1.813794 14.373076 19.391518 16.123034 -6.841248 -19.691492 -7.605374 23.433601 31.327671 30.380899 -19.670008 9.084363 -28.679636 -51.082760 -133.788116 -111.217102 -52.696350 -30.148254 -15.002956 -8.001153 5.000184 30.416189 -2.313269 2.979727 10.236049 6.626561 11.179459 107.724266 -28.039867 -25.420612 -9.414583 0.000000 0.000000 -12.558475 -3.613822 -1.293623 -2.449216 -5.765582 1.312416 106.548248 -10.168203 60.879066 -18.969013 -53.402573 -52.081707 112.485626 33.193584 48.815216 70.082199 -6.191080 11.647466 
-7.223994 7.937199 -1.829268 -90.003609 0.001292 120.000862 -1.369070 12.974183 -2.920824 -1.813794 14.373076 19.391518 16.118856 -6.589390 -19.676453 -7.605374 23.433601 31.327671 30.380899 -19.670008 9.084363 -28.679636 -51.082760 -133.788116 -111.217102 -52.696358 -30.148258 -15.002956 -8.001154 5.000184 30.416189 -2.313270 2.979728 11.115160 5.114106 11.442083 108.881874 -27.500786 -25.041965 -10.618675 0.000000 0.000000 -12.558476 -3.613822 -1.293623 -2.449216 -5.765583 1.312416 106.548248 -10.168203 60.879066 -18.969019 -53.402576 -52.081707 112.485626 33.193581 48.815212 70.082191 -6.191080 11.647465 
-7.223994 7.937199 -1.829268 -90.003609 0.001289 120.000854 -1.369070 12.974184 -2.920825 -1.813794 14.373076 19.391518 16.114750 -6.337492 -19.661444 -7.605371 23.433599 31.327667 30.380899 -19.670010 9.084363 -28.679640 -51.082764 -133.788116 -111.217102 -52.696354 -30.148260 -15.002956 -8.001154 5.000184 30.416189 -2.313270 2.979727 11.987600 3.594242 11.681440 110.032524 -26.953806 -24.676624 -11.825743 0.000000 0.000000 -12.558476 -3.613822 -1.293623 -2.449216 -5.765583 1.312416 106.548248 -10.168203 60.879066 -18.969017 -53.402580 -52.081707 112.485626 33.193581 48.815212 70.082191 -6.191080 11.647465 
